<svg xmlns="http://www.w3.org/2000/svg" viewBox="0 0 114.91 114.91"><defs><style>.cls-1{fill:none;}.cls-2{stroke:#fff;stroke-miterlimit:10;}</style></defs><title>bKing</title><g id="Layer_2" data-name="Layer 2"><g id="Layer_1-2" data-name="Layer 1"><rect class="cls-1" width="114.91" height="114.91"/><path class="cls-2" d="M31.27,97.59c-1.3,0-2.36,1.58-2.36,3.54s1.06,3.54,2.36,3.54"/><path class="cls-2" d="M83.64,104.67c1.3,0,2.36-1.58,2.36-3.54s-1.06-3.54-2.36-3.54"/><path class="cls-2" d="M31.27,96.4a59.74,59.74,0,0,0-28-35.23c14.61-11.26,30.3-16.5,54.18-16.5S97,49.91,111.63,61.17a59.74,59.74,0,0,0-28,35.23H31.27ZM11.47,61.17C21.35,65.64,32.1,83.05,35.84,96.4H79.08c3.74-13.35,14.48-30.76,24.37-35.23-12.4-8-26.28-12-46-12S23.87,53.2,11.47,61.17Z"/><polygon class="cls-2" points="51.62 29.91 51.62 41.58 63.29 41.58 63.29 29.91 74.96 29.91 74.96 18.24 63.29 18.24 63.29 6.57 51.62 6.57 51.62 18.24 39.95 18.24 39.95 29.91 51.62 29.91"/><rect class="cls-2" x="31.27" y="96.4" width="52.37" height="9.45"/><path class="cls-2" d="M23.7,61.9c6,7.55,9.09,23.61,12.14,34.5H79.08c3-10.89,6.15-26.95,12.13-34.5-9.39-12.3-18-12.75-33.75-12.72S33.09,49.6,23.7,61.9Z"/><polygon class="cls-2" points="64.12 44.67 69 61.17 63.12 96.4 51.8 96.4 45.91 61.17 50.79 44.67 64.12 44.67"/><rect class="cls-2" x="50.09" y="41.58" width="14.72" height="2.77"/><circle class="cls-2" cx="57.14" cy="101.13" r="3.54"/></g></g></svg>