<svg xmlns="http://www.w3.org/2000/svg" viewBox="0 0 114.91 114.91"><defs><style>.cls-1{fill:none;}.cls-2{stroke:#fff;stroke-miterlimit:10;}</style></defs><title>bKnight</title><g id="Layer_2" data-name="Layer 2"><g id="Layer_1-2" data-name="Layer 1"><rect class="cls-1" width="114.91" height="114.91"/><path class="cls-2" d="M14.14,109.79H5.84C.89,33.48,31.91,11.66,63.2,11.59l2.1,3.55Z"/><path class="cls-2" d="M74.52,15.09a30.8,30.8,0,0,1,5.92-7.93c-9.73-1.11-15.14,8-15.14,8"/><path class="cls-2" d="M76.48,62.31A54.33,54.33,0,0,0,88.24,71.7c2.72,1.62,1.81,3.7,3,5.14s15.92-3.7,17.63-6.42,0-7.8,0-7.8-17.33-17-18.06-19.1-.34-9.46-.85-11.38S75.62,15,75.62,15C32.79,12,16.11,49.47,14.14,109.79l55.63.55c0-39.54-13-45-14.1-47.72C53.09,56.24,71,52.12,76.48,62.31Z"/></g></g></svg>