<svg xmlns="http://www.w3.org/2000/svg" viewBox="0 0 114.91 114.91"><defs><style>.cls-1{fill:none;}.cls-2{fill:#fff;stroke:#231f20;stroke-miterlimit:10;}</style></defs><title>wBishop</title><g id="Layer_2" data-name="Layer 2"><g id="Layer_1-2" data-name="Layer 1"><rect class="cls-1" width="114.91" height="114.91"/><path class="cls-2" d="M36.4,93C29.53,79.36,27,75.81,27.57,64.56,34.08,44.16,45,14,57.46,10.07c5.67,1.81,14.11,11.46,15.77,14.48l-11,21.5,4.87,2.48,9.48-18.46c4.28,7.76,8,25.58,10.8,34.49.62,11.25-2,14.8-8.83,28.45"/><rect class="cls-2" x="36.4" y="93.01" width="42.12" height="12.31"/><polygon class="cls-2" points="53.17 74.61 44.59 74.61 44.59 66.04 53.17 66.04 53.17 57.46 61.75 57.46 61.75 66.04 70.33 66.04 70.33 74.61 61.75 74.61 61.75 83.19 53.17 83.19 53.17 74.61"/><circle class="cls-2" cx="57.46" cy="6.62" r="3.45"/></g></g></svg>