<svg xmlns="http://www.w3.org/2000/svg" viewBox="0 0 114.91 114.91"><defs><style>.cls-1{fill:none;}.cls-2{fill:#fff;stroke:#231f20;stroke-miterlimit:10;}</style></defs><title>wQueen</title><g id="Layer_2" data-name="Layer 2"><g id="Layer_1-2" data-name="Layer 1"><rect class="cls-1" width="114.91" height="114.91"/><path class="cls-2" d="M29.94,93.7c-1.72,0-3.11,2.09-3.11,4.66S28.22,103,29.94,103"/><path class="cls-2" d="M85,103c1.71,0,3.1-2.09,3.1-4.66S86.69,93.7,85,93.7"/><path class="cls-2" d="M85,91.39c-3.46-22.79,7-35.88,21-47.18C94.54,27.83,75,28.49,57.46,22.74,39.87,28.49,20.37,27.83,8.93,44.21c14,11.3,24.47,24.39,21,47.18"/><path class="cls-2" d="M85,91.39C84.65,73.55,100.07,56.61,109.72,52H95.93a9.29,9.29,0,1,1-18.58,0H66.75a9.29,9.29,0,0,1-18.58,0H37.56A9.29,9.29,0,0,1,19,52H5.19c9.66,4.6,25.07,21.54,24.75,39.38"/><rect class="cls-2" x="29.94" y="91.39" width="55.04" height="13.93"/><circle class="cls-2" cx="57.46" cy="98.36" r="4.66"/><circle class="cls-2" cx="57.46" cy="16.16" r="6.57"/></g></g></svg>