<svg xmlns="http://www.w3.org/2000/svg" xmlns:xlink="http://www.w3.org/1999/xlink" viewBox="0 0 1152 648"><defs><style>.cls-1,.cls-8{fill:none;}.cls-2{fill:#4068b2;}.cls-3{fill:#e4be21;}.cls-4{fill:#fed9b6;}.cls-5{fill:#c6a588;}.cls-6{clip-path:url(#clip-path);}.cls-7{fill:#fff;}.cls-8{stroke:#000;stroke-miterlimit:10;stroke-width:10px;}.cls-9{fill:#e12526;}</style><clipPath id="clip-path"><path class="cls-1" d="M576,380.33l-59.82-10.56v42.91s-168.25-3.17-196.64,17.72S239,578.31,251.07,597.71,518,626,518,626L576,441,634,626s254.88-8.88,266.93-28.28-40.09-146.41-68.48-167.3-196.64-17.72-196.64-17.72V369.77Z"/></clipPath></defs><title>alice</title><g id="Layer_1" data-name="Layer 1"><rect class="cls-2" width="1152" height="648"/></g><g id="Layer_2" data-name="Layer 2"><path class="cls-3" d="M440.57,249.44s4.43,43.89,7.1,57.89S458.87,384,500.93,384s96.21,3.07,140.07,0,54.67-67.34,54.67-81.34,4.4-69.8,4.4-69.8Z"/><polygon class="cls-4" points="530.33 380.33 530.33 343.67 576 343.67 621.67 343.67 621.67 380.33 530.33 380.33"/><path class="cls-4" d="M576,96.32l-115,57.1,16,143.32s61.5,67.58,99,67.58,99-67.58,99-67.58l16-143.32Z"/><path class="cls-5" d="M530,344.21c3.57,2.31,7.13,4.61,10.81,6.72s7.37,4.18,11.19,6a85.05,85.05,0,0,0,11.75,4.58,38.4,38.4,0,0,0,24.59,0A85.07,85.07,0,0,0,600,356.9c3.82-1.79,7.55-3.82,11.19-6s7.24-4.41,10.81-6.72c-3.35,2.62-6.84,5.06-10.39,7.41s-7.26,4.47-11.06,6.42A75.84,75.84,0,0,1,588.75,363a38.38,38.38,0,0,1-25.49,0A75.83,75.83,0,0,1,551.4,358c-3.8-2-7.48-4.11-11.06-6.42S533.3,346.82,530,344.21Z"/><path class="cls-3" d="M435,234.66c-3.85-24.5-14-68,6-120S503.72,44,576.36,44s100,30,124,62S725.5,234.82,662.5,274.82c13-13.5,17.9-75.59,17.7-88.8s-12.2-28.7-12.2-28.7-11.83,17.72-24.5,25c6.5-27-16-41.82-22-50,4,8.18,13.5,42,0,52-.5-23.5-27.5-53.5-33-51.5-2.51.91,1.57,13.38-7.34,27.44s-5.79,34-8.91,34.56c-5.75,1-11.93-23.68-19.25-21.5s-14-12-19.5-10.5-20-18-20-18-18,34-5.5,63c-22-5.5-27-41.5-27-41.5s-6.77,24.27-8.39,36.89.89,19.61,12.89,35.34c-5.35,1.74-8.78-.22-8.78-.22s-1.23,27.45,8.28,41.06C471,282.78,438.85,259.16,435,234.66Z"/><g class="cls-6"><path class="cls-7" d="M576,380.33l-59.82-10.56v42.91s-168.25-3.17-196.64,17.72S239,578.31,251.07,597.71,518,626,518,626L576,441,634,626s254.88-8.88,266.93-28.28-40.09-146.41-68.48-167.3-196.64-17.72-196.64-17.72V369.77Z"/><path class="cls-8" d="M593.62,424.09,649.7,605s254.88-13.61,266.93-33"/><path class="cls-8" d="M558.38,424.09,502.3,605S247.42,591.4,235.36,572"/></g><polygon class="cls-9" points="635.82 411.25 576 424.19 516.18 411.25 516.18 385.36 576 398.31 635.82 385.36 635.82 411.25"/><polygon class="cls-9" points="568.67 625.98 542.9 612.56 542.9 501.03 555.49 408.06 581.26 421.49 569.59 507.66 568.67 625.98"/><polygon class="cls-9" points="607.68 618.14 581.91 631.58 582.23 508.91 569.32 413.66 595.09 400.22 607.43 491.27 607.68 618.14"/></g></svg>